<svg id="visual" viewBox="0 0 900 675" width="900" height="675" xmlns="http://www.w3.org/2000/svg" xmlns:xlink="http://www.w3.org/1999/xlink" version="1.1"><g stroke-width="1" stroke-linejoin="bevel"><path d="M476.3 367.5L513.3 526.5L550.3 421Z" fill="#fdfdf9" stroke="#fdfdf9"></path><path d="M476.3 367.5L377.7 425L513.3 526.5Z" fill="#fdfdf9" stroke="#fdfdf9"></path><path d="M377.7 425L396.7 545.5L513.3 526.5Z" fill="#fdfdf9" stroke="#fdfdf9"></path><path d="M476.3 367.5L354.7 353.5L377.7 425Z" fill="#fdfdf9" stroke="#fdfdf9"></path><path d="M377.7 425L227.1 480L396.7 545.5Z" fill="#f7f5ec" stroke="#f7f5ec"></path><path d="M513.3 526.5L640.9 459L550.3 421Z" fill="#f9f8f0" stroke="#f9f8f0"></path><path d="M550.3 421L653.9 311.5L476.3 367.5Z" fill="#fffffe" stroke="#fffffe"></path><path d="M354.7 353.5L292.1 376.5L377.7 425Z" fill="#fbfaf5" stroke="#fbfaf5"></path><path d="M513.3 526.5L661.9 568.5L640.9 459Z" fill="#f7f5ec" stroke="#f7f5ec"></path><path d="M508.3 675L661.9 568.5L513.3 526.5Z" fill="#f4eede" stroke="#f4eede"></path><path d="M396.7 545.5L508.3 675L513.3 526.5Z" fill="#f2e8d4" stroke="#f2e8d4"></path><path d="M739.4 418L653.9 311.5L640.9 459Z" fill="#f6f3e7" stroke="#f6f3e7"></path><path d="M640.9 459L653.9 311.5L550.3 421Z" fill="#f7f5ec" stroke="#f7f5ec"></path><path d="M476.3 367.5L352.7 195L354.7 353.5Z" fill="#f2e8d4" stroke="#f2e8d4"></path><path d="M653.9 311.5L546.3 220L476.3 367.5Z" fill="#fdfdf9" stroke="#fdfdf9"></path><path d="M354.7 353.5L242.1 248L292.1 376.5Z" fill="#f3ebd9" stroke="#f3ebd9"></path><path d="M292.1 376.5L227.1 480L377.7 425Z" fill="#f6f3e7" stroke="#f6f3e7"></path><path d="M396.7 545.5L350.7 675L508.3 675Z" fill="#f6f3e7" stroke="#f6f3e7"></path><path d="M226.1 534.5L350.7 675L396.7 545.5Z" fill="#fdfdf9" stroke="#fdfdf9"></path><path d="M227.1 480L226.1 534.5L396.7 545.5Z" fill="#fffffe" stroke="#fffffe"></path><path d="M734.4 552.5L739.4 418L640.9 459Z" fill="#fffffe" stroke="#fffffe"></path><path d="M653.9 311.5L667.9 255L546.3 220Z" fill="#f3ebd9" stroke="#f3ebd9"></path><path d="M794.4 299.5L667.9 255L653.9 311.5Z" fill="#f9f8f0" stroke="#f9f8f0"></path><path d="M736.4 675L734.4 552.5L661.9 568.5Z" fill="#fffffe" stroke="#fffffe"></path><path d="M661.9 568.5L734.4 552.5L640.9 459Z" fill="#f5f0e2" stroke="#f5f0e2"></path><path d="M546.3 220L352.7 195L476.3 367.5Z" fill="#f9f8f0" stroke="#f9f8f0"></path><path d="M292.1 376.5L135.6 353.5L227.1 480Z" fill="#fdfdf9" stroke="#fdfdf9"></path><path d="M508.3 675L649.9 675L661.9 568.5Z" fill="#fbfaf5" stroke="#fbfaf5"></path><path d="M352.7 195L242.1 248L354.7 353.5Z" fill="#f9f8f0" stroke="#f9f8f0"></path><path d="M226.1 534.5L233.1 675L350.7 675Z" fill="#f4eede" stroke="#f4eede"></path><path d="M642.9 110.5L517.3 128.5L546.3 220Z" fill="#f7f5ec" stroke="#f7f5ec"></path><path d="M546.3 220L517.3 128.5L352.7 195Z" fill="#f7f5ec" stroke="#f7f5ec"></path><path d="M517.3 128.5L344.7 144.5L352.7 195Z" fill="#f9f8f0" stroke="#f9f8f0"></path><path d="M352.7 195L246.1 137.5L242.1 248Z" fill="#fbfaf5" stroke="#fbfaf5"></path><path d="M649.9 675L736.4 675L661.9 568.5Z" fill="#fdfdf9" stroke="#fdfdf9"></path><path d="M900 408L794.4 299.5L739.4 418Z" fill="#fffffe" stroke="#fffffe"></path><path d="M114.6 265L135.6 353.5L242.1 248Z" fill="#f6f3e7" stroke="#f6f3e7"></path><path d="M242.1 248L135.6 353.5L292.1 376.5Z" fill="#fdfdf9" stroke="#fdfdf9"></path><path d="M114.6 472L152.6 599.5L226.1 534.5Z" fill="#fdfdf9" stroke="#fdfdf9"></path><path d="M226.1 534.5L152.6 599.5L233.1 675Z" fill="#f2e8d4" stroke="#f2e8d4"></path><path d="M114.6 472L226.1 534.5L227.1 480Z" fill="#f9f8f0" stroke="#f9f8f0"></path><path d="M135.6 353.5L114.6 472L227.1 480Z" fill="#f4eede" stroke="#f4eede"></path><path d="M900 408L739.4 418L734.4 552.5Z" fill="#fffffe" stroke="#fffffe"></path><path d="M739.4 418L794.4 299.5L653.9 311.5Z" fill="#fbfaf5" stroke="#fbfaf5"></path><path d="M667.9 255L642.9 110.5L546.3 220Z" fill="#f9f8f0" stroke="#f9f8f0"></path><path d="M787.4 234L642.9 110.5L667.9 255Z" fill="#f9f8f0" stroke="#f9f8f0"></path><path d="M222.1 0L246.1 137.5L344.7 144.5Z" fill="#f3ebd9" stroke="#f3ebd9"></path><path d="M794.4 299.5L787.4 234L667.9 255Z" fill="#f5f0e2" stroke="#f5f0e2"></path><path d="M396.7 0L344.7 144.5L517.3 128.5Z" fill="#f6f3e7" stroke="#f6f3e7"></path><path d="M344.7 144.5L246.1 137.5L352.7 195Z" fill="#fffffe" stroke="#fffffe"></path><path d="M125.6 153.5L114.6 265L242.1 248Z" fill="#f3ebd9" stroke="#f3ebd9"></path><path d="M0 337.5L0 469L114.6 472Z" fill="#f7f5ec" stroke="#f7f5ec"></path><path d="M0 544.5L152.6 599.5L114.6 472Z" fill="#f3ebd9" stroke="#f3ebd9"></path><path d="M0 544.5L111.6 675L152.6 599.5Z" fill="#f2e5d0" stroke="#f2e5d0"></path><path d="M152.6 599.5L111.6 675L233.1 675Z" fill="#fbfaf5" stroke="#fbfaf5"></path><path d="M900 582.5L900 408L734.4 552.5Z" fill="#f2e5d0" stroke="#f2e5d0"></path><path d="M794.4 299.5L900 201L787.4 234Z" fill="#f2e8d4" stroke="#f2e8d4"></path><path d="M900 408L900 332.5L794.4 299.5Z" fill="#f6f3e7" stroke="#f6f3e7"></path><path d="M736.4 675L900 582.5L734.4 552.5Z" fill="#f2e5d0" stroke="#f2e5d0"></path><path d="M246.1 137.5L125.6 153.5L242.1 248Z" fill="#f3ebd9" stroke="#f3ebd9"></path><path d="M630.9 0L540.3 0L642.9 110.5Z" fill="#fdfdf9" stroke="#fdfdf9"></path><path d="M642.9 110.5L540.3 0L517.3 128.5Z" fill="#f3ebd9" stroke="#f3ebd9"></path><path d="M246.1 137.5L222.1 0L125.6 153.5Z" fill="#f4eede" stroke="#f4eede"></path><path d="M747.4 70.5L642.9 110.5L787.4 234Z" fill="#fdfdf9" stroke="#fdfdf9"></path><path d="M540.3 0L396.7 0L517.3 128.5Z" fill="#f7f5ec" stroke="#f7f5ec"></path><path d="M900 95.5L747.4 70.5L787.4 234Z" fill="#f6f3e7" stroke="#f6f3e7"></path><path d="M0 337.5L114.6 472L135.6 353.5Z" fill="#f3ebd9" stroke="#f3ebd9"></path><path d="M0 337.5L135.6 353.5L114.6 265Z" fill="#fbfaf5" stroke="#fbfaf5"></path><path d="M747.4 70.5L630.9 0L642.9 110.5Z" fill="#f9f8f0" stroke="#f9f8f0"></path><path d="M0 469L0 544.5L114.6 472Z" fill="#f2e8d4" stroke="#f2e8d4"></path><path d="M736.4 675L900 675L900 582.5Z" fill="#f2e5d0" stroke="#f2e5d0"></path><path d="M0 188L0 337.5L114.6 265Z" fill="#f7f5ec" stroke="#f7f5ec"></path><path d="M900 332.5L900 201L794.4 299.5Z" fill="#f3ebd9" stroke="#f3ebd9"></path><path d="M396.7 0L222.1 0L344.7 144.5Z" fill="#f5f0e2" stroke="#f5f0e2"></path><path d="M125.6 153.5L0 188L114.6 265Z" fill="#f7f5ec" stroke="#f7f5ec"></path><path d="M0 544.5L0 675L111.6 675Z" fill="#f5f0e2" stroke="#f5f0e2"></path><path d="M900 0L753.4 0L747.4 70.5Z" fill="#fffffe" stroke="#fffffe"></path><path d="M747.4 70.5L753.4 0L630.9 0Z" fill="#f6f3e7" stroke="#f6f3e7"></path><path d="M0 152.5L0 188L125.6 153.5Z" fill="#fbfaf5" stroke="#fbfaf5"></path><path d="M900 201L900 95.5L787.4 234Z" fill="#f9f8f0" stroke="#f9f8f0"></path><path d="M109.6 0L0 152.5L125.6 153.5Z" fill="#f6f3e7" stroke="#f6f3e7"></path><path d="M222.1 0L109.6 0L125.6 153.5Z" fill="#f6f3e7" stroke="#f6f3e7"></path><path d="M900 95.5L900 0L747.4 70.5Z" fill="#f2e8d4" stroke="#f2e8d4"></path><path d="M109.6 0L0 0L0 152.5Z" fill="#f9f8f0" stroke="#f9f8f0"></path></g></svg>